<svg width="34" height="26" viewBox="0 0 34 26" fill="none" xmlns="http://www.w3.org/2000/svg">
<g id=" " clip-path="url(#clip0_1476_1555)">
<path id="Vector" d="M13.3399 10.1309C12.8999 10.4909 12.6299 11.0409 12.6299 11.6509C12.6299 12.7409 13.5199 13.6309 14.6099 13.6309C14.8699 13.6309 15.1199 13.5809 15.3499 13.4909C15.6999 14.0309 16.3099 14.3809 16.9999 14.3809C17.6899 14.3809 18.2999 14.0309 18.6499 13.4909C18.8799 13.5809 19.1299 13.6309 19.3899 13.6309C20.4799 13.6309 21.3699 12.7409 21.3699 11.6509C21.3699 11.0509 21.0999 10.5109 20.6799 10.1509" stroke="#4C9037" stroke-width="2" stroke-linecap="round" stroke-linejoin="round"/>
<path id="Vector_2" d="M33 13.3008V21.7408C33 23.2808 31.75 24.5308 30.21 24.5308H3.79C2.25 24.5308 1 23.2808 1 21.7408V13.3008" stroke="#999899" stroke-width="2" stroke-linecap="round" stroke-linejoin="round"/>
<path id="Vector_3" d="M20.2001 3.44097L23.2801 2.26097C25.6301 1.36097 28.3301 2.39097 29.3101 4.57097L32.6401 12.021C33.9001 14.831 31.6701 17.931 28.3801 17.931H5.62009C0.570091 17.931 -0.809909 11.501 3.85009 9.71097L12.6501 6.34097" stroke="#999899" stroke-width="2" stroke-linecap="round" stroke-linejoin="round"/>
<path id="Vector_4" d="M16.9499 11.1807C14.3599 11.1507 12.4399 8.82072 12.7399 6.25072C13.0399 3.68072 15.0899 1.98072 16.2399 1.23072C16.6999 0.930718 17.2899 0.920718 17.7499 1.23072C18.9799 2.04072 21.2899 3.94072 21.2899 6.89072C21.2899 9.28072 19.3399 11.2107 16.9499 11.1807Z" stroke="#E94745" stroke-width="2" stroke-linecap="round" stroke-linejoin="round"/>
<path id="Vector_5" d="M1 21.1094H33" stroke="#999899" stroke-width="2" stroke-linecap="round" stroke-linejoin="round"/>
<path id="Vector_6" d="M20.95 7.05984L18.75 6.08984L17 7.23984L15.25 6.08984L13.05 7.05984" stroke="#E94745" stroke-width="1.5" stroke-linecap="round" stroke-linejoin="round"/>
</g>
<defs>
<clipPath id="clip0_1476_1555">
<rect width="34" height="25.54" fill="white"/>
</clipPath>
</defs>
</svg>
